%TF.GenerationSoftware,KiCad,Pcbnew,9.0.6*%
%TF.CreationDate,2025-12-29T13:42:38-07:00*%
%TF.ProjectId,RatPad,52617450-6164-42e6-9b69-6361645f7063,2*%
%TF.SameCoordinates,Original*%
%TF.FileFunction,Soldermask,Top*%
%TF.FilePolarity,Negative*%
%FSLAX46Y46*%
G04 Gerber Fmt 4.6, Leading zero omitted, Abs format (unit mm)*
G04 Created by KiCad (PCBNEW 9.0.6) date 2025-12-29 13:42:38*
%MOMM*%
%LPD*%
G01*
G04 APERTURE LIST*
G04 Aperture macros list*
%AMRoundRect*
0 Rectangle with rounded corners*
0 $1 Rounding radius*
0 $2 $3 $4 $5 $6 $7 $8 $9 X,Y pos of 4 corners*
0 Add a 4 corners polygon primitive as box body*
4,1,4,$2,$3,$4,$5,$6,$7,$8,$9,$2,$3,0*
0 Add four circle primitives for the rounded corners*
1,1,$1+$1,$2,$3*
1,1,$1+$1,$4,$5*
1,1,$1+$1,$6,$7*
1,1,$1+$1,$8,$9*
0 Add four rect primitives between the rounded corners*
20,1,$1+$1,$2,$3,$4,$5,0*
20,1,$1+$1,$4,$5,$6,$7,0*
20,1,$1+$1,$6,$7,$8,$9,0*
20,1,$1+$1,$8,$9,$2,$3,0*%
G04 Aperture macros list end*
%ADD10R,1.600000X0.850000*%
%ADD11C,1.700000*%
%ADD12C,4.000000*%
%ADD13C,2.200000*%
%ADD14RoundRect,0.250000X-0.550000X-0.550000X0.550000X-0.550000X0.550000X0.550000X-0.550000X0.550000X0*%
%ADD15C,1.600000*%
%ADD16R,1.700000X1.700000*%
%ADD17O,1.700000X1.700000*%
%ADD18RoundRect,0.152400X-1.063600X-0.609600X1.063600X-0.609600X1.063600X0.609600X-1.063600X0.609600X0*%
%ADD19C,1.524000*%
%ADD20RoundRect,0.152400X1.063600X0.609600X-1.063600X0.609600X-1.063600X-0.609600X1.063600X-0.609600X0*%
G04 APERTURE END LIST*
D10*
%TO.C,D7*%
X116846250Y-95756250D03*
X116846250Y-97506250D03*
X113346250Y-97506250D03*
X113346250Y-95756250D03*
%TD*%
%TO.C,D11*%
X123566250Y-95756250D03*
X123566250Y-97506250D03*
X120066250Y-97506250D03*
X120066250Y-95756250D03*
%TD*%
%TO.C,D14*%
X130286250Y-88756250D03*
X130286250Y-90506250D03*
X126786250Y-90506250D03*
X126786250Y-88756250D03*
%TD*%
%TO.C,D16*%
X130286250Y-102756250D03*
X130286250Y-104506250D03*
X126786250Y-104506250D03*
X126786250Y-102756250D03*
%TD*%
%TO.C,D6*%
X116846250Y-88756250D03*
X116846250Y-90506250D03*
X113346250Y-90506250D03*
X113346250Y-88756250D03*
%TD*%
%TO.C,D8*%
X116846250Y-102756250D03*
X116846250Y-104506250D03*
X113346250Y-104506250D03*
X113346250Y-102756250D03*
%TD*%
%TO.C,D4*%
X110126250Y-102756250D03*
X110126250Y-104506250D03*
X106626250Y-104506250D03*
X106626250Y-102756250D03*
%TD*%
%TO.C,D3*%
X110126250Y-95756250D03*
X110126250Y-97506250D03*
X106626250Y-97506250D03*
X106626250Y-95756250D03*
%TD*%
%TO.C,D10*%
X123566250Y-88756250D03*
X123566250Y-90506250D03*
X120066250Y-90506250D03*
X120066250Y-88756250D03*
%TD*%
%TO.C,D2*%
X110126250Y-88756250D03*
X110126250Y-90506250D03*
X106626250Y-90506250D03*
X106626250Y-88756250D03*
%TD*%
%TO.C,D12*%
X123566250Y-102756250D03*
X123566250Y-104506250D03*
X120066250Y-104506250D03*
X120066250Y-102756250D03*
%TD*%
%TO.C,D15*%
X130286250Y-95756250D03*
X130286250Y-97506250D03*
X126786250Y-97506250D03*
X126786250Y-95756250D03*
%TD*%
D11*
%TO.C,SW12*%
X177420000Y-136150000D03*
D12*
X182500000Y-136150000D03*
D11*
X187580000Y-136150000D03*
D13*
X185040000Y-131070000D03*
X178690000Y-133610000D03*
%TD*%
D11*
%TO.C,SW11*%
X177420000Y-117100000D03*
D12*
X182500000Y-117100000D03*
D11*
X187580000Y-117100000D03*
D13*
X185040000Y-112020000D03*
X178690000Y-114560000D03*
%TD*%
D11*
%TO.C,SW10*%
X177420000Y-98050000D03*
D12*
X182500000Y-98050000D03*
D11*
X187580000Y-98050000D03*
D13*
X185040000Y-92970000D03*
X178690000Y-95510000D03*
%TD*%
D11*
%TO.C,SW9*%
X177420000Y-79000000D03*
D12*
X182500000Y-79000000D03*
D11*
X187580000Y-79000000D03*
D13*
X185040000Y-73920000D03*
X178690000Y-76460000D03*
%TD*%
D11*
%TO.C,SW8*%
X158370000Y-136150000D03*
D12*
X163450000Y-136150000D03*
D11*
X168530000Y-136150000D03*
D13*
X165990000Y-131070000D03*
X159640000Y-133610000D03*
%TD*%
D11*
%TO.C,SW7*%
X158370000Y-117100000D03*
D12*
X163450000Y-117100000D03*
D11*
X168530000Y-117100000D03*
D13*
X165990000Y-112020000D03*
X159640000Y-114560000D03*
%TD*%
D11*
%TO.C,SW6*%
X158370000Y-98050000D03*
D12*
X163450000Y-98050000D03*
D11*
X168530000Y-98050000D03*
D13*
X165990000Y-92970000D03*
X159640000Y-95510000D03*
%TD*%
D11*
%TO.C,SW5*%
X158370000Y-79000000D03*
D12*
X163450000Y-79000000D03*
D11*
X168530000Y-79000000D03*
D13*
X165990000Y-73920000D03*
X159640000Y-76460000D03*
%TD*%
D11*
%TO.C,SW4*%
X139320000Y-136150000D03*
D12*
X144400000Y-136150000D03*
D11*
X149480000Y-136150000D03*
D13*
X146940000Y-131070000D03*
X140590000Y-133610000D03*
%TD*%
D11*
%TO.C,SW3*%
X139320000Y-117100000D03*
D12*
X144400000Y-117100000D03*
D11*
X149480000Y-117100000D03*
D13*
X146940000Y-112020000D03*
X140590000Y-114560000D03*
%TD*%
D11*
%TO.C,SW2*%
X139320000Y-98050000D03*
D12*
X144400000Y-98050000D03*
D11*
X149480000Y-98050000D03*
D13*
X146940000Y-92970000D03*
X140590000Y-95510000D03*
%TD*%
D11*
%TO.C,SW1*%
X139320000Y-79000000D03*
D12*
X144400000Y-79000000D03*
D11*
X149480000Y-79000000D03*
D13*
X146940000Y-73920000D03*
X140590000Y-76460000D03*
%TD*%
D14*
%TO.C,D28*%
X184405000Y-145675000D03*
D15*
X192025000Y-145675000D03*
%TD*%
D14*
%TO.C,D27*%
X165355000Y-145675000D03*
D15*
X172975000Y-145675000D03*
%TD*%
D14*
%TO.C,D26*%
X146305000Y-145675000D03*
D15*
X153925000Y-145675000D03*
%TD*%
D14*
%TO.C,D25*%
X184405000Y-126625000D03*
D15*
X192025000Y-126625000D03*
%TD*%
D14*
%TO.C,D24*%
X165355000Y-126625000D03*
D15*
X172975000Y-126625000D03*
%TD*%
D14*
%TO.C,D23*%
X146305000Y-126625000D03*
D15*
X153925000Y-126625000D03*
%TD*%
D14*
%TO.C,D22*%
X184405000Y-107575000D03*
D15*
X192025000Y-107575000D03*
%TD*%
D14*
%TO.C,D21*%
X165355000Y-107575000D03*
D15*
X172975000Y-107575000D03*
%TD*%
D14*
%TO.C,D20*%
X146305000Y-107575000D03*
D15*
X153925000Y-107575000D03*
%TD*%
D14*
%TO.C,D19*%
X184405000Y-88525000D03*
D15*
X192025000Y-88525000D03*
%TD*%
D14*
%TO.C,D18*%
X165405000Y-88525000D03*
D15*
X173025000Y-88525000D03*
%TD*%
D14*
%TO.C,D17*%
X146305000Y-88525000D03*
D15*
X153925000Y-88525000D03*
%TD*%
D10*
%TO.C,D1*%
X110126250Y-81631250D03*
X110126250Y-83381250D03*
X106626250Y-83381250D03*
X106626250Y-81631250D03*
%TD*%
%TO.C,D9*%
X123566250Y-81631250D03*
X123566250Y-83381250D03*
X120066250Y-83381250D03*
X120066250Y-81631250D03*
%TD*%
%TO.C,D5*%
X116846250Y-81631250D03*
X116846250Y-83381250D03*
X113346250Y-83381250D03*
X113346250Y-81631250D03*
%TD*%
%TO.C,D13*%
X130286250Y-81631250D03*
X130286250Y-83381250D03*
X126786250Y-83381250D03*
X126786250Y-81631250D03*
%TD*%
D16*
%TO.C,OLED1*%
X181615000Y-58305000D03*
D17*
X181615000Y-60845000D03*
X181615000Y-63385000D03*
X181615000Y-65925000D03*
%TD*%
D18*
%TO.C,U1*%
X126835000Y-57650000D03*
D19*
X126000000Y-57650000D03*
D18*
X126835000Y-60190000D03*
D19*
X126000000Y-60190000D03*
D18*
X126835000Y-62730000D03*
D19*
X126000000Y-62730000D03*
D18*
X126835000Y-65270000D03*
D19*
X126000000Y-65270000D03*
D18*
X126835000Y-67810000D03*
D19*
X126000000Y-67810000D03*
D18*
X126835000Y-70350000D03*
D19*
X126000000Y-70350000D03*
D18*
X126835000Y-72890000D03*
D19*
X126000000Y-72890000D03*
X110760000Y-72890000D03*
D20*
X109925000Y-72890000D03*
D19*
X110760000Y-70350000D03*
D20*
X109925000Y-70350000D03*
D19*
X110760000Y-67810000D03*
D20*
X109925000Y-67810000D03*
D19*
X110760000Y-65270000D03*
D20*
X109925000Y-65270000D03*
D19*
X110760000Y-62730000D03*
D20*
X109925000Y-62730000D03*
D19*
X110760000Y-60190000D03*
D20*
X109925000Y-60190000D03*
D19*
X110760000Y-57650000D03*
D20*
X109925000Y-57650000D03*
%TD*%
M02*
