%TF.GenerationSoftware,KiCad,Pcbnew,9.0.6*%
%TF.CreationDate,2025-12-29T13:42:38-07:00*%
%TF.ProjectId,RatPad,52617450-6164-42e6-9b69-6361645f7063,2*%
%TF.SameCoordinates,Original*%
%TF.FileFunction,Copper,L1,Top*%
%TF.FilePolarity,Positive*%
%FSLAX46Y46*%
G04 Gerber Fmt 4.6, Leading zero omitted, Abs format (unit mm)*
G04 Created by KiCad (PCBNEW 9.0.6) date 2025-12-29 13:42:38*
%MOMM*%
%LPD*%
G01*
G04 APERTURE LIST*
G04 Aperture macros list*
%AMRoundRect*
0 Rectangle with rounded corners*
0 $1 Rounding radius*
0 $2 $3 $4 $5 $6 $7 $8 $9 X,Y pos of 4 corners*
0 Add a 4 corners polygon primitive as box body*
4,1,4,$2,$3,$4,$5,$6,$7,$8,$9,$2,$3,0*
0 Add four circle primitives for the rounded corners*
1,1,$1+$1,$2,$3*
1,1,$1+$1,$4,$5*
1,1,$1+$1,$6,$7*
1,1,$1+$1,$8,$9*
0 Add four rect primitives between the rounded corners*
20,1,$1+$1,$2,$3,$4,$5,0*
20,1,$1+$1,$4,$5,$6,$7,0*
20,1,$1+$1,$6,$7,$8,$9,0*
20,1,$1+$1,$8,$9,$2,$3,0*%
G04 Aperture macros list end*
%TA.AperFunction,SMDPad,CuDef*%
%ADD10R,1.600000X0.850000*%
%TD*%
%TA.AperFunction,ComponentPad*%
%ADD11C,2.200000*%
%TD*%
%TA.AperFunction,ComponentPad*%
%ADD12RoundRect,0.250000X-0.550000X-0.550000X0.550000X-0.550000X0.550000X0.550000X-0.550000X0.550000X0*%
%TD*%
%TA.AperFunction,ComponentPad*%
%ADD13C,1.600000*%
%TD*%
%TA.AperFunction,ComponentPad*%
%ADD14R,1.700000X1.700000*%
%TD*%
%TA.AperFunction,ComponentPad*%
%ADD15O,1.700000X1.700000*%
%TD*%
%TA.AperFunction,SMDPad,CuDef*%
%ADD16RoundRect,0.152400X-1.063600X-0.609600X1.063600X-0.609600X1.063600X0.609600X-1.063600X0.609600X0*%
%TD*%
%TA.AperFunction,ComponentPad*%
%ADD17C,1.524000*%
%TD*%
%TA.AperFunction,SMDPad,CuDef*%
%ADD18RoundRect,0.152400X1.063600X0.609600X-1.063600X0.609600X-1.063600X-0.609600X1.063600X-0.609600X0*%
%TD*%
%TA.AperFunction,ViaPad*%
%ADD19C,0.600000*%
%TD*%
%TA.AperFunction,Conductor*%
%ADD20C,0.200000*%
%TD*%
%TA.AperFunction,Conductor*%
%ADD21C,0.300000*%
%TD*%
G04 APERTURE END LIST*
D10*
%TO.P,D7,4,VDD*%
%TO.N,+5V*%
X116846250Y-95756250D03*
%TO.P,D7,3,DIN*%
%TO.N,Net-(D6-DOUT)*%
X116846250Y-97506250D03*
%TO.P,D7,2,VSS*%
%TO.N,GND*%
X113346250Y-97506250D03*
%TO.P,D7,1,DOUT*%
%TO.N,Net-(D7-DOUT)*%
X113346250Y-95756250D03*
%TD*%
%TO.P,D11,4,VDD*%
%TO.N,+5V*%
X123566250Y-95756250D03*
%TO.P,D11,3,DIN*%
%TO.N,Net-(D10-DOUT)*%
X123566250Y-97506250D03*
%TO.P,D11,2,VSS*%
%TO.N,GND*%
X120066250Y-97506250D03*
%TO.P,D11,1,DOUT*%
%TO.N,Net-(D11-DOUT)*%
X120066250Y-95756250D03*
%TD*%
%TO.P,D14,4,VDD*%
%TO.N,+5V*%
X130286250Y-88756250D03*
%TO.P,D14,3,DIN*%
%TO.N,Net-(D13-DOUT)*%
X130286250Y-90506250D03*
%TO.P,D14,2,VSS*%
%TO.N,GND*%
X126786250Y-90506250D03*
%TO.P,D14,1,DOUT*%
%TO.N,Net-(D14-DOUT)*%
X126786250Y-88756250D03*
%TD*%
%TO.P,D16,4,VDD*%
%TO.N,+5V*%
X130286250Y-102756250D03*
%TO.P,D16,3,DIN*%
%TO.N,Net-(D15-DOUT)*%
X130286250Y-104506250D03*
%TO.P,D16,2,VSS*%
%TO.N,GND*%
X126786250Y-104506250D03*
%TO.P,D16,1,DOUT*%
%TO.N,unconnected-(D16-DOUT-Pad1)*%
X126786250Y-102756250D03*
%TD*%
%TO.P,D6,4,VDD*%
%TO.N,+5V*%
X116846250Y-88756250D03*
%TO.P,D6,3,DIN*%
%TO.N,Net-(D5-DOUT)*%
X116846250Y-90506250D03*
%TO.P,D6,2,VSS*%
%TO.N,GND*%
X113346250Y-90506250D03*
%TO.P,D6,1,DOUT*%
%TO.N,Net-(D6-DOUT)*%
X113346250Y-88756250D03*
%TD*%
%TO.P,D8,4,VDD*%
%TO.N,+5V*%
X116846250Y-102756250D03*
%TO.P,D8,3,DIN*%
%TO.N,Net-(D7-DOUT)*%
X116846250Y-104506250D03*
%TO.P,D8,2,VSS*%
%TO.N,GND*%
X113346250Y-104506250D03*
%TO.P,D8,1,DOUT*%
%TO.N,Net-(D8-DOUT)*%
X113346250Y-102756250D03*
%TD*%
%TO.P,D4,4,VDD*%
%TO.N,+5V*%
X110126250Y-102756250D03*
%TO.P,D4,3,DIN*%
%TO.N,Net-(D3-DOUT)*%
X110126250Y-104506250D03*
%TO.P,D4,2,VSS*%
%TO.N,GND*%
X106626250Y-104506250D03*
%TO.P,D4,1,DOUT*%
%TO.N,Net-(D4-DOUT)*%
X106626250Y-102756250D03*
%TD*%
%TO.P,D3,4,VDD*%
%TO.N,+5V*%
X110126250Y-95756250D03*
%TO.P,D3,3,DIN*%
%TO.N,Net-(D2-DOUT)*%
X110126250Y-97506250D03*
%TO.P,D3,2,VSS*%
%TO.N,GND*%
X106626250Y-97506250D03*
%TO.P,D3,1,DOUT*%
%TO.N,Net-(D3-DOUT)*%
X106626250Y-95756250D03*
%TD*%
%TO.P,D10,4,VDD*%
%TO.N,+5V*%
X123566250Y-88756250D03*
%TO.P,D10,3,DIN*%
%TO.N,Net-(D10-DIN)*%
X123566250Y-90506250D03*
%TO.P,D10,2,VSS*%
%TO.N,GND*%
X120066250Y-90506250D03*
%TO.P,D10,1,DOUT*%
%TO.N,Net-(D10-DOUT)*%
X120066250Y-88756250D03*
%TD*%
%TO.P,D2,4,VDD*%
%TO.N,+5V*%
X110126250Y-88756250D03*
%TO.P,D2,3,DIN*%
%TO.N,Net-(D1-DOUT)*%
X110126250Y-90506250D03*
%TO.P,D2,2,VSS*%
%TO.N,GND*%
X106626250Y-90506250D03*
%TO.P,D2,1,DOUT*%
%TO.N,Net-(D2-DOUT)*%
X106626250Y-88756250D03*
%TD*%
%TO.P,D12,4,VDD*%
%TO.N,+5V*%
X123566250Y-102756250D03*
%TO.P,D12,3,DIN*%
%TO.N,Net-(D11-DOUT)*%
X123566250Y-104506250D03*
%TO.P,D12,2,VSS*%
%TO.N,GND*%
X120066250Y-104506250D03*
%TO.P,D12,1,DOUT*%
%TO.N,Net-(D12-DOUT)*%
X120066250Y-102756250D03*
%TD*%
%TO.P,D15,4,VDD*%
%TO.N,+5V*%
X130286250Y-95756250D03*
%TO.P,D15,3,DIN*%
%TO.N,Net-(D14-DOUT)*%
X130286250Y-97506250D03*
%TO.P,D15,2,VSS*%
%TO.N,GND*%
X126786250Y-97506250D03*
%TO.P,D15,1,DOUT*%
%TO.N,Net-(D15-DOUT)*%
X126786250Y-95756250D03*
%TD*%
D11*
%TO.P,SW12,1,1*%
%TO.N,Col 3*%
X185040000Y-131070000D03*
%TO.P,SW12,2,2*%
%TO.N,Net-(D28-A)*%
X178690000Y-133610000D03*
%TD*%
%TO.P,SW11,1,1*%
%TO.N,Col 3*%
X185040000Y-112020000D03*
%TO.P,SW11,2,2*%
%TO.N,Net-(D25-A)*%
X178690000Y-114560000D03*
%TD*%
%TO.P,SW10,1,1*%
%TO.N,Col 3*%
X185040000Y-92970000D03*
%TO.P,SW10,2,2*%
%TO.N,Net-(D22-A)*%
X178690000Y-95510000D03*
%TD*%
%TO.P,SW9,1,1*%
%TO.N,Col 3*%
X185040000Y-73920000D03*
%TO.P,SW9,2,2*%
%TO.N,Net-(D19-A)*%
X178690000Y-76460000D03*
%TD*%
%TO.P,SW8,1,1*%
%TO.N,Col 2*%
X165990000Y-131070000D03*
%TO.P,SW8,2,2*%
%TO.N,Net-(D27-A)*%
X159640000Y-133610000D03*
%TD*%
%TO.P,SW7,1,1*%
%TO.N,Col 2*%
X165990000Y-112020000D03*
%TO.P,SW7,2,2*%
%TO.N,Net-(D24-A)*%
X159640000Y-114560000D03*
%TD*%
%TO.P,SW6,1,1*%
%TO.N,Col 2*%
X165990000Y-92970000D03*
%TO.P,SW6,2,2*%
%TO.N,Net-(D21-A)*%
X159640000Y-95510000D03*
%TD*%
%TO.P,SW5,1,1*%
%TO.N,Col 2*%
X165990000Y-73920000D03*
%TO.P,SW5,2,2*%
%TO.N,Net-(D18-A)*%
X159640000Y-76460000D03*
%TD*%
%TO.P,SW4,1,1*%
%TO.N,Col 1*%
X146940000Y-131070000D03*
%TO.P,SW4,2,2*%
%TO.N,Net-(D26-A)*%
X140590000Y-133610000D03*
%TD*%
%TO.P,SW3,1,1*%
%TO.N,Col 1*%
X146940000Y-112020000D03*
%TO.P,SW3,2,2*%
%TO.N,Net-(D23-A)*%
X140590000Y-114560000D03*
%TD*%
%TO.P,SW2,1,1*%
%TO.N,Col 1*%
X146940000Y-92970000D03*
%TO.P,SW2,2,2*%
%TO.N,Net-(D20-A)*%
X140590000Y-95510000D03*
%TD*%
%TO.P,SW1,1,1*%
%TO.N,Col 1*%
X146940000Y-73920000D03*
%TO.P,SW1,2,2*%
%TO.N,Net-(D17-A)*%
X140590000Y-76460000D03*
%TD*%
D12*
%TO.P,D28,1,K*%
%TO.N,Row 4*%
X184405000Y-145675000D03*
D13*
%TO.P,D28,2,A*%
%TO.N,Net-(D28-A)*%
X192025000Y-145675000D03*
%TD*%
D12*
%TO.P,D27,1,K*%
%TO.N,Row 4*%
X165355000Y-145675000D03*
D13*
%TO.P,D27,2,A*%
%TO.N,Net-(D27-A)*%
X172975000Y-145675000D03*
%TD*%
D12*
%TO.P,D26,1,K*%
%TO.N,Row 4*%
X146305000Y-145675000D03*
D13*
%TO.P,D26,2,A*%
%TO.N,Net-(D26-A)*%
X153925000Y-145675000D03*
%TD*%
D12*
%TO.P,D25,1,K*%
%TO.N,Row 3*%
X184405000Y-126625000D03*
D13*
%TO.P,D25,2,A*%
%TO.N,Net-(D25-A)*%
X192025000Y-126625000D03*
%TD*%
D12*
%TO.P,D24,1,K*%
%TO.N,Row 3*%
X165355000Y-126625000D03*
D13*
%TO.P,D24,2,A*%
%TO.N,Net-(D24-A)*%
X172975000Y-126625000D03*
%TD*%
D12*
%TO.P,D23,1,K*%
%TO.N,Row 3*%
X146305000Y-126625000D03*
D13*
%TO.P,D23,2,A*%
%TO.N,Net-(D23-A)*%
X153925000Y-126625000D03*
%TD*%
D12*
%TO.P,D22,1,K*%
%TO.N,Row 2*%
X184405000Y-107575000D03*
D13*
%TO.P,D22,2,A*%
%TO.N,Net-(D22-A)*%
X192025000Y-107575000D03*
%TD*%
D12*
%TO.P,D21,1,K*%
%TO.N,Row 2*%
X165355000Y-107575000D03*
D13*
%TO.P,D21,2,A*%
%TO.N,Net-(D21-A)*%
X172975000Y-107575000D03*
%TD*%
D12*
%TO.P,D20,1,K*%
%TO.N,Row 2*%
X146305000Y-107575000D03*
D13*
%TO.P,D20,2,A*%
%TO.N,Net-(D20-A)*%
X153925000Y-107575000D03*
%TD*%
D12*
%TO.P,D19,1,K*%
%TO.N,Row 1*%
X184405000Y-88525000D03*
D13*
%TO.P,D19,2,A*%
%TO.N,Net-(D19-A)*%
X192025000Y-88525000D03*
%TD*%
D12*
%TO.P,D18,1,K*%
%TO.N,Row 1*%
X165405000Y-88525000D03*
D13*
%TO.P,D18,2,A*%
%TO.N,Net-(D18-A)*%
X173025000Y-88525000D03*
%TD*%
D12*
%TO.P,D17,1,K*%
%TO.N,Row 1*%
X146305000Y-88525000D03*
D13*
%TO.P,D17,2,A*%
%TO.N,Net-(D17-A)*%
X153925000Y-88525000D03*
%TD*%
D10*
%TO.P,D1,4,VDD*%
%TO.N,+5V*%
X110126250Y-81631250D03*
%TO.P,D1,3,DIN*%
%TO.N,Net-(D1-DIN)*%
X110126250Y-83381250D03*
%TO.P,D1,2,VSS*%
%TO.N,GND*%
X106626250Y-83381250D03*
%TO.P,D1,1,DOUT*%
%TO.N,Net-(D1-DOUT)*%
X106626250Y-81631250D03*
%TD*%
%TO.P,D9,4,VDD*%
%TO.N,+5V*%
X123566250Y-81631250D03*
%TO.P,D9,3,DIN*%
%TO.N,Net-(D8-DOUT)*%
X123566250Y-83381250D03*
%TO.P,D9,2,VSS*%
%TO.N,GND*%
X120066250Y-83381250D03*
%TO.P,D9,1,DOUT*%
%TO.N,Net-(D10-DIN)*%
X120066250Y-81631250D03*
%TD*%
%TO.P,D5,4,VDD*%
%TO.N,+5V*%
X116846250Y-81631250D03*
%TO.P,D5,3,DIN*%
%TO.N,Net-(D4-DOUT)*%
X116846250Y-83381250D03*
%TO.P,D5,2,VSS*%
%TO.N,GND*%
X113346250Y-83381250D03*
%TO.P,D5,1,DOUT*%
%TO.N,Net-(D5-DOUT)*%
X113346250Y-81631250D03*
%TD*%
%TO.P,D13,4,VDD*%
%TO.N,+5V*%
X130286250Y-81631250D03*
%TO.P,D13,3,DIN*%
%TO.N,Net-(D12-DOUT)*%
X130286250Y-83381250D03*
%TO.P,D13,2,VSS*%
%TO.N,GND*%
X126786250Y-83381250D03*
%TO.P,D13,1,DOUT*%
%TO.N,Net-(D13-DOUT)*%
X126786250Y-81631250D03*
%TD*%
D14*
%TO.P,OLED1,1,GND*%
%TO.N,GND*%
X181615000Y-58305000D03*
D15*
%TO.P,OLED1,2,VCC*%
%TO.N,+3.3V*%
X181615000Y-60845000D03*
%TO.P,OLED1,3,SCL*%
%TO.N,Net-(OLED1-SCL)*%
X181615000Y-63385000D03*
%TO.P,OLED1,4,SDA*%
%TO.N,Net-(OLED1-SDA)*%
X181615000Y-65925000D03*
%TD*%
D16*
%TO.P,U1,14,VBUS*%
%TO.N,+5V*%
X126835000Y-57650000D03*
D17*
X126000000Y-57650000D03*
D16*
%TO.P,U1,13,GND*%
%TO.N,GND*%
X126835000Y-60190000D03*
D17*
X126000000Y-60190000D03*
D16*
%TO.P,U1,12,3V3*%
%TO.N,+3.3V*%
X126835000Y-62730000D03*
D17*
X126000000Y-62730000D03*
D16*
%TO.P,U1,11,GPIO3/MOSI*%
%TO.N,Row 3*%
X126835000Y-65270000D03*
D17*
X126000000Y-65270000D03*
D16*
%TO.P,U1,10,GPIO4/MISO*%
%TO.N,Row 4*%
X126835000Y-67810000D03*
D17*
X126000000Y-67810000D03*
D16*
%TO.P,U1,9,GPIO2/SCK*%
%TO.N,Row 2*%
X126835000Y-70350000D03*
D17*
X126000000Y-70350000D03*
D16*
%TO.P,U1,8,GPIO1/RX*%
%TO.N,Row 1*%
X126835000Y-72890000D03*
D17*
X126000000Y-72890000D03*
%TO.P,U1,7,GPIO0/TX*%
%TO.N,unconnected-(U1-GPIO0{slash}TX-Pad7)*%
X110760000Y-72890000D03*
D18*
X109925000Y-72890000D03*
D17*
%TO.P,U1,6,GPIO7/SCL*%
%TO.N,Net-(OLED1-SCL)*%
X110760000Y-70350000D03*
D18*
X109925000Y-70350000D03*
D17*
%TO.P,U1,5,GPIO6/SDA*%
%TO.N,Net-(OLED1-SDA)*%
X110760000Y-67810000D03*
D18*
X109925000Y-67810000D03*
D17*
%TO.P,U1,4,GPIO29/ADC3/A3*%
%TO.N,Col 3*%
X110760000Y-65270000D03*
D18*
X109925000Y-65270000D03*
D17*
%TO.P,U1,3,GPIO28/ADC2/A2*%
%TO.N,Col 2*%
X110760000Y-62730000D03*
D18*
X109925000Y-62730000D03*
D17*
%TO.P,U1,2,GPIO27/ADC1/A1*%
%TO.N,Col 1*%
X110760000Y-60190000D03*
D18*
X109925000Y-60190000D03*
D17*
%TO.P,U1,1,GPIO26/ADC0/A0*%
%TO.N,Net-(D1-DIN)*%
X110760000Y-57650000D03*
D18*
X109925000Y-57650000D03*
%TD*%
D19*
%TO.N,Net-(D12-DOUT)*%
X120000000Y-103000000D03*
%TO.N,Net-(D4-DOUT)*%
X106500000Y-103000000D03*
%TO.N,Net-(D8-DOUT)*%
X113500000Y-103000000D03*
%TO.N,GND*%
X120066250Y-83381250D03*
%TO.N,Col 3*%
X113000000Y-56500000D03*
%TO.N,Col 2*%
X112500000Y-59500000D03*
%TO.N,Row 1*%
X131000000Y-73000000D03*
X135500000Y-73000000D03*
%TO.N,Row 2*%
X134500000Y-71000000D03*
X131000000Y-71000000D03*
%TO.N,Row 3*%
X133500000Y-66000000D03*
X133500000Y-70000000D03*
%TO.N,Row 4*%
X132500000Y-70000000D03*
X132500000Y-67810000D03*
%TO.N,+5V*%
X130286250Y-81631250D03*
%TO.N,Net-(D12-DOUT)*%
X130286250Y-83381250D03*
%TO.N,Net-(D8-DOUT)*%
X123566250Y-83381250D03*
%TO.N,Net-(D4-DOUT)*%
X116846250Y-83381250D03*
%TD*%
D20*
%TO.N,Net-(OLED1-SDA)*%
X114570000Y-64000000D02*
X110760000Y-67810000D01*
X180464000Y-63536000D02*
X180000000Y-64000000D01*
X181138240Y-62234000D02*
X180464000Y-62908240D01*
X180464000Y-62908240D02*
X180464000Y-63536000D01*
X182766000Y-62908240D02*
X182091760Y-62234000D01*
X182091760Y-62234000D02*
X181138240Y-62234000D01*
X180000000Y-64000000D02*
X114570000Y-64000000D01*
X182766000Y-64774000D02*
X182766000Y-62908240D01*
X181615000Y-65925000D02*
X182766000Y-64774000D01*
D21*
%TO.N,+5V*%
X129405000Y-80750000D02*
X130286250Y-81631250D01*
X124447500Y-80750000D02*
X129405000Y-80750000D01*
X123566250Y-81631250D02*
X124447500Y-80750000D01*
X122685000Y-80750000D02*
X123566250Y-81631250D01*
X117727500Y-80750000D02*
X122685000Y-80750000D01*
X116846250Y-81631250D02*
X117727500Y-80750000D01*
X115965000Y-80750000D02*
X116846250Y-81631250D01*
X111007500Y-80750000D02*
X115965000Y-80750000D01*
X110126250Y-81631250D02*
X111007500Y-80750000D01*
X118250000Y-83035000D02*
X118250000Y-87352500D01*
X116846250Y-81631250D02*
X118250000Y-83035000D01*
X118250000Y-87352500D02*
X116846250Y-88756250D01*
X118250000Y-90160000D02*
X118250000Y-94352500D01*
X116846250Y-88756250D02*
X118250000Y-90160000D01*
X118250000Y-94352500D02*
X116846250Y-95756250D01*
X118250000Y-101352500D02*
X116846250Y-102756250D01*
X118250000Y-97160000D02*
X118250000Y-101352500D01*
X116846250Y-95756250D02*
X118250000Y-97160000D01*
X125000000Y-97190000D02*
X125000000Y-101322500D01*
X125000000Y-101322500D02*
X123566250Y-102756250D01*
X123566250Y-95756250D02*
X125000000Y-97190000D01*
X125000000Y-94322500D02*
X123566250Y-95756250D01*
X125000000Y-90190000D02*
X125000000Y-94322500D01*
X123566250Y-88756250D02*
X125000000Y-90190000D01*
X125000000Y-87322500D02*
X123566250Y-88756250D01*
X123566250Y-81631250D02*
X125000000Y-83065000D01*
X125000000Y-83065000D02*
X125000000Y-87322500D01*
D20*
%TO.N,GND*%
X118965250Y-103405250D02*
X120066250Y-104506250D01*
X118965250Y-98607250D02*
X118965250Y-103405250D01*
X120066250Y-97506250D02*
X118965250Y-98607250D01*
X105525250Y-96405250D02*
X106626250Y-97506250D01*
X105525250Y-91607250D02*
X105525250Y-96405250D01*
X106626250Y-90506250D02*
X105525250Y-91607250D01*
X112245250Y-91607250D02*
X112245250Y-96405250D01*
X113346250Y-90506250D02*
X112245250Y-91607250D01*
X112245250Y-96405250D02*
X113346250Y-97506250D01*
X125685250Y-96405250D02*
X126786250Y-97506250D01*
X125685250Y-91607250D02*
X125685250Y-96405250D01*
X126786250Y-90506250D02*
X125685250Y-91607250D01*
X118965250Y-84482250D02*
X118965250Y-89405250D01*
X120066250Y-83381250D02*
X118965250Y-84482250D01*
X118965250Y-89405250D02*
X120066250Y-90506250D01*
X105525250Y-89405250D02*
X106626250Y-90506250D01*
X105525250Y-84482250D02*
X105525250Y-89405250D01*
X106626250Y-83381250D02*
X105525250Y-84482250D01*
D21*
%TO.N,+5V*%
X131500000Y-87542500D02*
X130286250Y-88756250D01*
X131500000Y-82845000D02*
X131500000Y-87542500D01*
X130286250Y-81631250D02*
X131500000Y-82845000D01*
D20*
%TO.N,Net-(D13-DOUT)*%
X128000000Y-82845000D02*
X128000000Y-88220000D01*
X126786250Y-81631250D02*
X128000000Y-82845000D01*
X128000000Y-88220000D02*
X130286250Y-90506250D01*
%TO.N,GND*%
X125685250Y-89405250D02*
X126786250Y-90506250D01*
X125685250Y-84482250D02*
X125685250Y-89405250D01*
X126786250Y-83381250D02*
X125685250Y-84482250D01*
%TO.N,Net-(D10-DIN)*%
X122000000Y-88940000D02*
X123566250Y-90506250D01*
X122000000Y-83565000D02*
X122000000Y-88940000D01*
X120066250Y-81631250D02*
X122000000Y-83565000D01*
%TO.N,Net-(D5-DOUT)*%
X114447250Y-88107250D02*
X116846250Y-90506250D01*
X114447250Y-82732250D02*
X114447250Y-88107250D01*
X113346250Y-81631250D02*
X114447250Y-82732250D01*
%TO.N,GND*%
X112245250Y-89405250D02*
X113346250Y-90506250D01*
X112245250Y-84482250D02*
X112245250Y-89405250D01*
X113346250Y-83381250D02*
X112245250Y-84482250D01*
D21*
%TO.N,+5V*%
X111500000Y-87382500D02*
X110126250Y-88756250D01*
X110126250Y-81631250D02*
X111500000Y-83005000D01*
X111500000Y-83005000D02*
X111500000Y-87382500D01*
D20*
%TO.N,Net-(D1-DOUT)*%
X109025250Y-84030250D02*
X109025250Y-89405250D01*
X109025250Y-89405250D02*
X110126250Y-90506250D01*
X106626250Y-81631250D02*
X109025250Y-84030250D01*
%TO.N,Net-(D2-DOUT)*%
X108500000Y-95880000D02*
X110126250Y-97506250D01*
X108500000Y-90630000D02*
X108500000Y-95880000D01*
X106626250Y-88756250D02*
X108500000Y-90630000D01*
D21*
%TO.N,+5V*%
X111500000Y-90130000D02*
X111500000Y-94382500D01*
X111500000Y-94382500D02*
X110126250Y-95756250D01*
X110126250Y-88756250D02*
X111500000Y-90130000D01*
D20*
%TO.N,Net-(D6-DOUT)*%
X114500000Y-95160000D02*
X116846250Y-97506250D01*
X113346250Y-88756250D02*
X114500000Y-89910000D01*
X114500000Y-89910000D02*
X114500000Y-95160000D01*
%TO.N,GND*%
X118965250Y-96405250D02*
X120066250Y-97506250D01*
X118965250Y-91607250D02*
X118965250Y-96405250D01*
X120066250Y-90506250D02*
X118965250Y-91607250D01*
%TO.N,Net-(D10-DOUT)*%
X121500000Y-90190000D02*
X121500000Y-95440000D01*
X120066250Y-88756250D02*
X121500000Y-90190000D01*
X121500000Y-95440000D02*
X123566250Y-97506250D01*
D21*
%TO.N,+5V*%
X131500000Y-89970000D02*
X131500000Y-94542500D01*
X130286250Y-88756250D02*
X131500000Y-89970000D01*
X131500000Y-94542500D02*
X130286250Y-95756250D01*
D20*
%TO.N,Net-(D14-DOUT)*%
X129185250Y-96405250D02*
X130286250Y-97506250D01*
X126786250Y-88756250D02*
X129185250Y-91155250D01*
X129185250Y-91155250D02*
X129185250Y-96405250D01*
D21*
%TO.N,+5V*%
X131500000Y-101542500D02*
X130286250Y-102756250D01*
X131500000Y-96970000D02*
X131500000Y-101542500D01*
X130286250Y-95756250D02*
X131500000Y-96970000D01*
D20*
%TO.N,Net-(D15-DOUT)*%
X128000000Y-102220000D02*
X130286250Y-104506250D01*
X128000000Y-96970000D02*
X128000000Y-102220000D01*
X126786250Y-95756250D02*
X128000000Y-96970000D01*
%TO.N,GND*%
X125685250Y-103405250D02*
X126786250Y-104506250D01*
X126786250Y-97506250D02*
X125685250Y-98607250D01*
X125685250Y-98607250D02*
X125685250Y-103405250D01*
X112245250Y-103405250D02*
X113346250Y-104506250D01*
X112245250Y-98607250D02*
X112245250Y-103405250D01*
X113346250Y-97506250D02*
X112245250Y-98607250D01*
%TO.N,Net-(D7-DOUT)*%
X115745250Y-98155250D02*
X115745250Y-103405250D01*
X115745250Y-103405250D02*
X116846250Y-104506250D01*
X113346250Y-95756250D02*
X115745250Y-98155250D01*
%TO.N,Net-(D11-DOUT)*%
X121167250Y-102107250D02*
X123566250Y-104506250D01*
X120066250Y-95756250D02*
X121167250Y-96857250D01*
X121167250Y-96857250D02*
X121167250Y-102107250D01*
D21*
%TO.N,+5V*%
X111500000Y-97130000D02*
X111500000Y-101382500D01*
X111500000Y-101382500D02*
X110126250Y-102756250D01*
X110126250Y-95756250D02*
X111500000Y-97130000D01*
D20*
%TO.N,Net-(D3-DOUT)*%
X109025250Y-103405250D02*
X110126250Y-104506250D01*
X109025250Y-98155250D02*
X109025250Y-103405250D01*
X106626250Y-95756250D02*
X109025250Y-98155250D01*
%TO.N,GND*%
X105525250Y-98607250D02*
X106626250Y-97506250D01*
X105525250Y-103405250D02*
X105525250Y-98607250D01*
X106626250Y-104506250D02*
X105525250Y-103405250D01*
%TO.N,Net-(D8-DOUT)*%
X113346250Y-102756250D02*
X113346250Y-102846250D01*
%TO.N,Net-(D4-DOUT)*%
X106626250Y-102873750D02*
X106500000Y-103000000D01*
%TO.N,Net-(D8-DOUT)*%
X113346250Y-102846250D02*
X113500000Y-103000000D01*
%TO.N,Net-(D4-DOUT)*%
X106626250Y-102756250D02*
X106626250Y-102873750D01*
%TO.N,GND*%
X120792250Y-105232250D02*
X126060250Y-105232250D01*
X126060250Y-105232250D02*
X126786250Y-104506250D01*
X119340250Y-105232250D02*
X120066250Y-104506250D01*
X107352250Y-105232250D02*
X112620250Y-105232250D01*
X112620250Y-105232250D02*
X113346250Y-104506250D01*
X106626250Y-104506250D02*
X107352250Y-105232250D01*
X114072250Y-105232250D02*
X119340250Y-105232250D01*
X113346250Y-104506250D02*
X114072250Y-105232250D01*
X120066250Y-104506250D02*
X120792250Y-105232250D01*
%TO.N,Net-(D12-DOUT)*%
X120066250Y-102933750D02*
X120000000Y-103000000D01*
X120066250Y-102756250D02*
X120066250Y-102933750D01*
D21*
%TO.N,+3.3V*%
X179730000Y-62730000D02*
X126000000Y-62730000D01*
X181615000Y-60845000D02*
X179730000Y-62730000D01*
D20*
%TO.N,Col 3*%
X113000000Y-63030000D02*
X110760000Y-65270000D01*
X113000000Y-63000000D02*
X113000000Y-63030000D01*
X113101000Y-62899000D02*
X113000000Y-63000000D01*
X113101000Y-56601000D02*
X113101000Y-62899000D01*
X113000000Y-56500000D02*
X113101000Y-56601000D01*
%TO.N,Col 2*%
X112500000Y-59500000D02*
X112500000Y-60990000D01*
X112500000Y-60990000D02*
X110760000Y-62730000D01*
%TO.N,Row 1*%
X129890000Y-72890000D02*
X126000000Y-72890000D01*
X130000000Y-73000000D02*
X129890000Y-72890000D01*
X131000000Y-73000000D02*
X130000000Y-73000000D01*
X146305000Y-88525000D02*
X135500000Y-77720000D01*
X135500000Y-77720000D02*
X135500000Y-73000000D01*
%TO.N,Row 2*%
X130350000Y-70350000D02*
X126000000Y-70350000D01*
X131000000Y-71000000D02*
X130350000Y-70350000D01*
X134500000Y-95770000D02*
X134500000Y-71000000D01*
X146305000Y-107575000D02*
X134500000Y-95770000D01*
%TO.N,Row 4*%
X132500000Y-67810000D02*
X126000000Y-67810000D01*
%TO.N,Row 3*%
X132770000Y-65270000D02*
X126000000Y-65270000D01*
X133500000Y-66000000D02*
X132770000Y-65270000D01*
X146305000Y-126625000D02*
X133500000Y-113820000D01*
X133500000Y-113820000D02*
X133500000Y-70000000D01*
%TO.N,Row 4*%
X146305000Y-145675000D02*
X132500000Y-131870000D01*
X132500000Y-131870000D02*
X132500000Y-70000000D01*
%TO.N,Col 3*%
X186139999Y-113119999D02*
X186139999Y-129970001D01*
X185040000Y-112020000D02*
X186139999Y-113119999D01*
X186139999Y-129970001D02*
X185040000Y-131070000D01*
X185506000Y-111554000D02*
X185040000Y-112020000D01*
X185506000Y-93436000D02*
X185506000Y-111554000D01*
X185040000Y-92970000D02*
X185506000Y-93436000D01*
X186139999Y-75019999D02*
X186139999Y-91870001D01*
X185040000Y-73920000D02*
X186139999Y-75019999D01*
X186139999Y-91870001D02*
X185040000Y-92970000D01*
%TO.N,Col 2*%
X167089999Y-113119999D02*
X167089999Y-129970001D01*
X165990000Y-112020000D02*
X167089999Y-113119999D01*
X167089999Y-129970001D02*
X165990000Y-131070000D01*
X167089999Y-110920001D02*
X165990000Y-112020000D01*
X165990000Y-92970000D02*
X167089999Y-94069999D01*
X167089999Y-94069999D02*
X167089999Y-110920001D01*
X167089999Y-91870001D02*
X165990000Y-92970000D01*
X167089999Y-75019999D02*
X167089999Y-91870001D01*
X165990000Y-73920000D02*
X167089999Y-75019999D01*
%TO.N,Col 1*%
X147500000Y-92410000D02*
X146940000Y-92970000D01*
X147500000Y-74480000D02*
X147500000Y-92410000D01*
X146940000Y-73920000D02*
X147500000Y-74480000D01*
X148039999Y-129970001D02*
X146940000Y-131070000D01*
X148039999Y-113119999D02*
X148039999Y-129970001D01*
X146940000Y-112020000D02*
X148039999Y-113119999D01*
X148039999Y-110920001D02*
X146940000Y-112020000D01*
X148039999Y-94069999D02*
X148039999Y-110920001D01*
X146940000Y-92970000D02*
X148039999Y-94069999D01*
%TO.N,Net-(D1-DIN)*%
X102351000Y-75606000D02*
X102351000Y-59500000D01*
X102351000Y-59500000D02*
X104201000Y-57650000D01*
X104201000Y-57650000D02*
X110760000Y-57650000D01*
X110126250Y-83381250D02*
X102351000Y-75606000D01*
%TO.N,Net-(OLED1-SCL)*%
X181615000Y-63385000D02*
X176000000Y-69000000D01*
X176000000Y-69000000D02*
X112110000Y-69000000D01*
X112110000Y-69000000D02*
X110760000Y-70350000D01*
%TO.N,GND*%
X179730000Y-60190000D02*
X126000000Y-60190000D01*
X181615000Y-58305000D02*
X179730000Y-60190000D01*
%TD*%
M02*
