%TF.GenerationSoftware,KiCad,Pcbnew,9.0.6*%
%TF.CreationDate,2025-12-29T13:42:38-07:00*%
%TF.ProjectId,RatPad,52617450-6164-42e6-9b69-6361645f7063,2*%
%TF.SameCoordinates,Original*%
%TF.FileFunction,Paste,Top*%
%TF.FilePolarity,Positive*%
%FSLAX46Y46*%
G04 Gerber Fmt 4.6, Leading zero omitted, Abs format (unit mm)*
G04 Created by KiCad (PCBNEW 9.0.6) date 2025-12-29 13:42:38*
%MOMM*%
%LPD*%
G01*
G04 APERTURE LIST*
%ADD10R,1.600000X0.850000*%
G04 APERTURE END LIST*
D10*
%TO.C,D7*%
X116846250Y-95756250D03*
X116846250Y-97506250D03*
X113346250Y-97506250D03*
X113346250Y-95756250D03*
%TD*%
%TO.C,D11*%
X123566250Y-95756250D03*
X123566250Y-97506250D03*
X120066250Y-97506250D03*
X120066250Y-95756250D03*
%TD*%
%TO.C,D14*%
X130286250Y-88756250D03*
X130286250Y-90506250D03*
X126786250Y-90506250D03*
X126786250Y-88756250D03*
%TD*%
%TO.C,D16*%
X130286250Y-102756250D03*
X130286250Y-104506250D03*
X126786250Y-104506250D03*
X126786250Y-102756250D03*
%TD*%
%TO.C,D6*%
X116846250Y-88756250D03*
X116846250Y-90506250D03*
X113346250Y-90506250D03*
X113346250Y-88756250D03*
%TD*%
%TO.C,D8*%
X116846250Y-102756250D03*
X116846250Y-104506250D03*
X113346250Y-104506250D03*
X113346250Y-102756250D03*
%TD*%
%TO.C,D4*%
X110126250Y-102756250D03*
X110126250Y-104506250D03*
X106626250Y-104506250D03*
X106626250Y-102756250D03*
%TD*%
%TO.C,D3*%
X110126250Y-95756250D03*
X110126250Y-97506250D03*
X106626250Y-97506250D03*
X106626250Y-95756250D03*
%TD*%
%TO.C,D10*%
X123566250Y-88756250D03*
X123566250Y-90506250D03*
X120066250Y-90506250D03*
X120066250Y-88756250D03*
%TD*%
%TO.C,D2*%
X110126250Y-88756250D03*
X110126250Y-90506250D03*
X106626250Y-90506250D03*
X106626250Y-88756250D03*
%TD*%
%TO.C,D12*%
X123566250Y-102756250D03*
X123566250Y-104506250D03*
X120066250Y-104506250D03*
X120066250Y-102756250D03*
%TD*%
%TO.C,D15*%
X130286250Y-95756250D03*
X130286250Y-97506250D03*
X126786250Y-97506250D03*
X126786250Y-95756250D03*
%TD*%
%TO.C,D1*%
X110126250Y-81631250D03*
X110126250Y-83381250D03*
X106626250Y-83381250D03*
X106626250Y-81631250D03*
%TD*%
%TO.C,D9*%
X123566250Y-81631250D03*
X123566250Y-83381250D03*
X120066250Y-83381250D03*
X120066250Y-81631250D03*
%TD*%
%TO.C,D5*%
X116846250Y-81631250D03*
X116846250Y-83381250D03*
X113346250Y-83381250D03*
X113346250Y-81631250D03*
%TD*%
%TO.C,D13*%
X130286250Y-81631250D03*
X130286250Y-83381250D03*
X126786250Y-83381250D03*
X126786250Y-81631250D03*
%TD*%
M02*
