<?xml version="1.0" encoding="UTF-8" standalone="no"?>
<!-- Created with Inkscape (http://www.inkscape.org/) -->

<svg
   width="210mm"
   height="297mm"
   viewBox="0 0 210 297"
   version="1.1"
   id="svg1"
   xml:space="preserve"
   inkscape:version="1.4.2 (f4327f4, 2025-05-13)"
   sodipodi:docname="rat-45.svg"
   xmlns:inkscape="http://www.inkscape.org/namespaces/inkscape"
   xmlns:sodipodi="http://sodipodi.sourceforge.net/DTD/sodipodi-0.dtd"
   xmlns="http://www.w3.org/2000/svg"
   xmlns:svg="http://www.w3.org/2000/svg"><sodipodi:namedview
     id="namedview1"
     pagecolor="#ffffff"
     bordercolor="#000000"
     borderopacity="0.25"
     inkscape:showpageshadow="2"
     inkscape:pageopacity="0.0"
     inkscape:pagecheckerboard="0"
     inkscape:deskcolor="#d1d1d1"
     inkscape:document-units="mm"
     inkscape:zoom="2.0792508"
     inkscape:cx="373.69229"
     inkscape:cy="515.32985"
     inkscape:window-width="2560"
     inkscape:window-height="1369"
     inkscape:window-x="1912"
     inkscape:window-y="-8"
     inkscape:window-maximized="1"
     inkscape:current-layer="layer2" /><defs
     id="defs1"><inkscape:path-effect
       effect="bspline"
       id="path-effect2"
       is_visible="true"
       lpeversion="1.3"
       weight="33.333333"
       steps="2"
       helper_size="0"
       apply_no_weight="true"
       apply_with_weight="true"
       only_selected="false"
       uniform="false" /></defs><g
     inkscape:groupmode="layer"
     id="layer2"
     inkscape:label="Layer 2"
     transform="rotate(45,116.6813,152.21406)"><path
       style="fill:none;stroke:#000000;stroke-width:2.965;stroke-linecap:round;stroke-linejoin:round;stroke-dasharray:none;stroke-opacity:1"
       d="m 62.175408,130.15445 c 0.03522,-0.0939 4.666348,-14.90725 5.578692,-0.98976"
       id="path2"
       sodipodi:nodetypes="cc" /><path
       style="fill:none;stroke:#000000;stroke-width:2.965;stroke-linecap:round;stroke-linejoin:round;stroke-dasharray:none;stroke-opacity:1"
       d="m 71.263274,131.86405 c 0,0 10.52753,-15.3414 5.398735,4.22901"
       id="path3" /><path
       style="fill:none;stroke:#000000;stroke-width:2.965;stroke-linecap:round;stroke-linejoin:round;stroke-dasharray:none;stroke-opacity:1"
       d="m 77.651776,132.089 c 0,0 1.754587,0.98977 6.298522,1.66461 4.543933,0.67484 8.183699,-2.0831 14.936491,-3.28423 6.312181,-1.12276 12.246451,-1.45625 19.255481,2.06951 7.42326,3.73413 7.4677,4.82877 9.89768,8.68297 0.98638,1.5645 3.05928,10.43755 6.70343,19.52541 0,0 1.7096,2.42944 5.71366,3.95908 4.00406,1.52964 7.60321,1.2597 10.07763,0.71983 2.47442,-0.53988 4.90386,-1.39467 7.91815,-0.49488 3.01429,0.89979 4.18401,2.24947 6.29851,3.8241"
       id="path4"
       sodipodi:nodetypes="csssscsssc" /><path
       style="fill:none;stroke:#000000;stroke-width:2.965;stroke-linecap:round;stroke-linejoin:round;stroke-dasharray:none;stroke-opacity:1"
       d="m 137.58543,163.33351 c 0,0 -3.18153,5.79622 -8.90284,5.95437 0.57404,0.14139 -13.26643,-0.71837 -13.54916,2.58816 l -16.561563,0.0286 c 0,0 -1.892753,-1.79186 0.896592,-4.71618 l 12.078061,-0.18315 c 0,0 -5.23647,-3.5137 -0.73752,-12.73653"
       id="path5"
       sodipodi:nodetypes="ccccccc" /><path
       style="fill:none;stroke:#000000;stroke-width:2.965;stroke-linecap:round;stroke-linejoin:round;stroke-dasharray:none;stroke-opacity:1"
       d="m 99.471653,167.22575 c 0,0 -5.377474,-5.09608 -7.774678,-4.85527 -7.229788,0.72627 -5.600156,4.03944 -10.201524,8.05084 -4.688796,4.08761 -15.804889,2.47439 -13.15649,-0.40622 2.193956,-2.38632 9.70274,-0.83003 9.132857,-4.81387 -0.51778,-3.61961 -0.888353,-6.36348 -3.013067,-9.14001 -2.129465,-2.78274 -3.487517,-4.80083 -12.418313,-9.30566 0,0 -19.030532,-7.96313 -12.956957,-10.52753 6.073575,-2.5644 13.069433,-6.05108 13.069433,-6.05108"
       id="path6"
       sodipodi:nodetypes="cssssscsc" /><path
       style="fill:none;stroke:#000000;stroke-width:2.965;stroke-linecap:round;stroke-linejoin:round;stroke-dasharray:none;stroke-opacity:1"
       d="m 51.692868,135.0583 -2.339452,-5.39873"
       id="path7" /><path
       style="fill:none;stroke:#000000;stroke-width:2.965;stroke-linecap:round;stroke-linejoin:round;stroke-dasharray:none;stroke-opacity:1"
       d="m 55.966865,133.07877 -1.889557,-4.54394"
       id="path8" /><path
       style="fill:none;stroke:#000000;stroke-width:2.965;stroke-linecap:round;stroke-linejoin:round;stroke-dasharray:none;stroke-opacity:1"
       d="m 53.273425,142.54838 -1.670537,4.07221"
       id="path9"
       sodipodi:nodetypes="cc" /><path
       style="fill:none;stroke:#000000;stroke-width:2.965;stroke-linecap:round;stroke-linejoin:round;stroke-dasharray:none;stroke-opacity:1"
       d="m 57.326995,144.96737 -1.40512,3.4528"
       id="path10"
       sodipodi:nodetypes="cc" /><path
       style="fill:none;stroke:#000000;stroke-width:2.965;stroke-linecap:round;stroke-linejoin:round;stroke-dasharray:none;stroke-opacity:1"
       d="m 67.87871,129.2709 3.380929,2.43218"
       id="path11"
       sodipodi:nodetypes="cc" /><circle
       style="fill:#000000;fill-opacity:1;stroke:#000000;stroke-width:2.965;stroke-linecap:round;stroke-linejoin:round;stroke-dasharray:none;stroke-opacity:1"
       id="path12"
       cx="61.95443"
       cy="136.0108"
       r="0.8997888" /></g></svg>
